<svg xmlns="http://www.w3.org/2000/svg" viewBox="0 0 45 45">
  <g fill="none" fill-rule="evenodd" transform="translate(-5 -5)">
    <circle cx="28" cy="28" r="28"/>
    <g fill="#FFF" fill-rule="nonzero">
      <path d="M27.952 19.66314c4.56792 0 8.2701 3.70505 8.2701 8.2701 0 4.56927-3.70233 8.27008-8.2701 8.27008-4.5652 0-8.2701-3.70232-8.2701-8.2701 0-4.56503 3.70506-8.27008 8.2701-8.27008z"/>
      <path d="M27.952 38.9615c-5.5796 0-10.17917-4.1461-10.91243-9.52723L9.43794 16.25302l-.00833-.01923-.85044 1.22805c-.20954.38457-.4135.7746-.60093 1.17294l-.40667.95112c-.13506.3281-.26875.66028-.38866.99928-.13506.37624-.25224.75673-.36383 1.13857l-.24528.878c-.10206.4094-.1888.8188-.2674 1.23093l-.14882.86968c-.06072.4038-.1075.80502-.14338 1.2061l-.07162.96067c-.01786.3667-.02483.7319-.02483 1.0986s.00545.73326.02483 1.0986l.07162.96067c.03724.40108.0854.80503.14338 1.2061l.14883.86968c.07995.41212.16534.82153.2674 1.23093l.24527.878c.1131.37912.22877.76218.36383 1.13857.1199.33628.25497.6671.38866.99928.13233.31705.25905.63545.40667.94962.18744.39835.3914.78565.6023 1.1743l.27434.539.12688.19714c.24255.41485.50994.81048.7802 1.2061l.43287.64363c.26057.35565.5458.69465.8312 1.03652l.57066.6836c.24816.27146.51418.53067.77596.79124.26193.2633.51962.5334.7926.7773l.6836.5734c.34188.2825.68088.5679 1.03653.8297l.63818.4356c.39698.27146.79533.539 1.2061.78018l.19576.12688.5375.27435c.38594.20954.7746.41757 1.17295.60365l.11446.0592.55824.22878c1.49135.63545 3.04886 1.08482 4.6368 1.38112l6.29214-10.91107c-.7375.14763-1.5012.23166-2.28548.23166z"/>
      <path d="M49.9313 26.43083l-.02892-.36383c-.1558-1.84155-.91252-4.5072-1.541-6.29637H35.3456c2.22598 2.01658 3.6333 4.9207 3.6333 8.1626 0 3.49823-1.63337 6.60917-4.16957 8.62847l-7.7532 13.44727c2.72637 0 6.3969-.49207 9.03788-1.54782l.08964-.02892.14066-.0592c.9001-.37352 1.79052-.78292 2.65747-1.28468.77596-.44665 1.5024-.94826 2.20402-1.47212l.03996-.03164c.67542-.51146 1.308-1.05577 1.9118-1.6293l.09372-.0813.30463-.31008c1.3342-1.3357 2.47974-2.8104 3.41422-4.40106l.10613-.1558.19153-.3873c.30054-.54582.57898-1.10405.83258-1.67197l.32522-.76507c.215-.539.40244-1.08482.57474-1.63745l.2274-.7113c.21092-.7678.38322-1.54238.51146-2.32666l.05375-.44665c.09508-.6727.1626-1.34948.19713-2.03308l.0124-.5472c.0109-.68086-.00286-1.36582-.05116-2.04957z"/>
      <path d="M47.04368 16.9065c-.46178-.79943-.97868-1.5451-1.52178-2.2646l-.17775-.2206c-.48798-.62984-1.00488-1.22804-1.5507-1.7905l-.36943-.37913c-.59956-.58988-1.22124-1.14963-1.8732-1.66093l-.14337-.12127c-.72645-.5596-1.48726-1.06272-2.27154-1.52315l-.15715-.10477-.59685-.31008c-.3446-.18608-.68783-.37215-1.04197-.539-.3405-.15853-.6836-.29918-1.02684-.44105l-.86423-.3446c-.41758-.1502-.8394-.27707-1.26258-.40668l-.70298-.20394c-.46043-.11855-.92494-.21227-1.38794-.3019l-.65604-.1296c-.4521-.07298-.9042-.11856-1.35766-.16125l-.74295-.07586c-.38866-.02484-.77595-.0221-1.1675-.02756l-.95657-.0053-.7443.05375c-1.6458.1102-3.29158.4038-4.9083.89313l-.3349.091c-.4094.13232-.8132.29357-1.21852.4521l-.7773.30735c-.33356.14202-.66302.3087-.99384.47284-.31977.15716-.6409.31568-.95522.4907l-.35838.18336-.5293.34187c-.31297.19304-.62305.39002-.92768.59957-.29766.20818-.59124.42045-.878.63817l-.7581.60516c-.31295.26194-.61742.52796-.91388.8035l-.56232.54856c-.32673.3281-.6465.66164-.94825 1.00624l-.2053.24816 6.2729 10.88214c1.4403-4.4121 5.58505-7.60572 10.4797-7.60572-.0003-.00015 19.09-.00015 19.09-.00015z"/>
    </g>
  </g>
</svg>
