<svg xmlns="http://www.w3.org/2000/svg" viewBox="0 0 42 46">
  <g fill="none" fill-rule="evenodd" transform="translate(-7 -5)">
    <circle cx="28" cy="28" r="28"/>
    <path fill="#FFF" fill-rule="nonzero" d="M39.9416 9.36678C36.6762 7.13112 32.6349 5.89474 28.078 5.89474c-4.1682 0-7.90354 1.03107-11.01175 2.91653C11.083 12.40474 7.39855 19.1311 7.39855 27.75003c0 11.6581 8.26873 22.27832 20.6754 22.27832 12.40513 0 20.67265-10.6175 20.67265-22.27832-.00137-8.1944-3.33154-14.6782-8.805-18.38325zm-11.86494.64514c6.65475 0 8.26464 9.24605 8.26464 17.6444 0 7.78225-1.00896 18.19565-8.1847 18.19565-7.17573 0-8.35972-10.51544-8.35972-18.29635.00136-8.39833 1.62368-17.5437 8.27978-17.5437z"/>
  </g>
</svg>
