<svg xmlns="http://www.w3.org/2000/svg" viewBox="0 0 45 41">
  <g fill="none" fill-rule="evenodd" transform="translate(-5 -9)">
    <circle cx="28" cy="28" r="28"/>
    <g fill-rule="nonzero">
      <path d="M27.94852 6.67352c11.44038 0 20.6754 9.235 20.6754 20.67538 0 11.4404-9.23517 20.6754-20.6754 20.6754S7.27314 38.7893 7.27314 27.3489c0-11.44038 9.235-20.67538 20.67538-20.67538z"/>
      <path fill="#FFF" d="M30.7953 49.12683c10.47548-1.7919 18.47-10.75118 18.47-21.77808l-.13777.2757c.2757-2.0676.2757-3.99725-.13777-5.51343-.13778 1.24047-.2757 1.92967-.55143 2.20538 0-.13778 0-1.3784-.41348-3.03236-.13778-1.24047-.4135-2.4811-.82698-3.58378.13778.55127.13778.9649.13778 1.3784-1.65396-4.27298-5.51345-9.6485-15.29972-9.5107 0 0 3.44584.41347 4.96202 2.75663 0 0-1.65396-.4135-2.89458.2757 1.51618.55127 2.89458 1.24047 3.99727 1.92967h.13778c.2757.13778.55127.4135.82698.55127 2.0676 1.51618 3.99727 3.58378 3.85934 6.20265-.55127-.827-1.1027-1.3784-1.92967-1.5162.9649 3.72156.9649 6.75392.2757 9.09723-.55126-1.65396-.9649-2.4811-1.3784-2.89458.55128 4.96203-.13777 8.5458-2.34315 10.88897.4135-1.3784.55127-2.61887.55127-3.58378-2.61888 3.85933-5.51346 5.92693-8.82152 6.0647-1.24047 0-2.4811-.13777-3.72156-.55126-1.65396-.55127-3.1703-1.51618-4.54854-2.89457 2.0676.13778 4.13505-.13777 5.78916-1.10268l2.75665-1.7919c.41348-.13777.6892-.13777 1.10268 0 .6892-.13777.9649-.41348.6892-1.10268-.2757-.4135-.82698-.82698-1.51618-1.24047-1.3784-.6892-2.89458-.55127-4.41076.4135-1.51618.82697-2.89458.82697-4.27298-.1378-.82698-.55126-1.7919-1.3784-2.61887-2.48108L18.25207 27.9c-.13778 1.24047 0 2.61887.55127 4.54854-.55127-1.7919-.6892-3.30807-.55127-4.54854 0-.9649.4135-1.65396 1.24047-1.65396h-.2757.41348c.9649.13778 1.92967.2757 3.1703.6892.13777-1.1027 0-2.34315-.827-3.58377 1.1027-1.1027 2.0676-1.7919 2.8946-2.2054.41348-.13777.55126-.55126.6892-.9649.2757-.55127.13777-.82698-.1378-1.1027-.82697 0-1.51617 0-2.34315-.13777-.2757-.13778-.6892-.4135-1.24047-.82698l-1.24046-1.24047-.41348-.2757-.13778-.1378.13778-.13777c.13777-.9649.41348-1.79188.82697-2.48108l.13778-.13778c.4135-.6892 1.24048-1.3784 2.34317-2.20537-2.20538.2757-4.13505 1.24046-5.92693 2.89457-1.3784-.4135-3.1703-.2757-5.09996.55127l-.2757.1378.2757-.1378c-1.24047-.55126-2.0676-2.20537-2.4811-4.962-1.6538 1.51617-2.343 4.41074-2.343 8.408l-.4135.6892-.13777.1378c-.2757.41348-.55125.9649-.9649 1.65395-.55126 1.1027-.82697 1.92967-.82697 2.75665v.82697l1.24046-.9649c-.4135 1.24046-.82698 2.48108-.96492 3.72155v.55127l-.4135-.4132c0 4.68647 1.5162 9.09723 3.99728 12.68085l.13778.13778.13778.13778c1.7919 2.4811 4.13505 4.54855 6.89185 6.20266 1.92967 1.1027 3.99726 1.92967 6.20264 2.4811l.4135.13777c.4135.13778.9649.13778 1.3784.2757.4135 0 .6892.1378 1.1027.1378h3.30805c.55128 0 1.1027-.1378 1.65397-.1378 0-.2757.4135-.2757.4135-.2757zM44.7168 22.24895v.13778-.13778z"/>
    </g>
  </g>
</svg>
