<svg xmlns="http://www.w3.org/2000/svg" viewBox="0 0 42 46">
  <g fill="none" fill-rule="evenodd" transform="translate(-7 -5)">
    <circle cx="28" cy="28" r="28"/>
    <path fill="#FFF" fill-rule="nonzero" d="M23.30743 16.79733c-1.7875 1.9194-2.6814 4.2817-2.9792 6.7916h15.7901v-1.18117c-.1489-1.62406-.44688-3.24812-1.34062-4.7246-1.1917-1.9194-3.12827-2.9528-5.36263-3.24813-3.27718-.5905-6.40545 0-9.38465 1.18115-4.4689 1.62407-8.19294 4.2817-11.1723 7.82515-.4469.5905-.89376 1.32874-1.4897 2.06698 0-.4429 0-.5905.1489-.88582.59578-4.13395 2.08546-8.1203 4.91577-11.3686 3.27733-3.83862 7.44825-6.20093 12.51308-7.08675 4.91576-.73824 9.53372 0 13.8537 2.5099 4.02203 2.2147 6.70343 5.61042 8.342 9.8921.89376 2.36232 1.34063 5.01995 1.4897 7.52984V31.56165H20.62635c0 2.21472.74485 4.2817 2.23453 5.90576 1.7875 1.9194 4.17092 2.80522 6.55435 3.24814 5.36264.73824 10.27857-.1476 14.89636-2.80522.1489 0 .29796-.14758.29796-.14758h.1489v8.85856c0 .29532-.1489.4429-.44687.5905-3.27718 1.62405-6.85233 2.65762-10.57638 2.8052-2.38343.1476-4.76686.1476-7.00122-.29532-7.00123-1.47648-12.662-6.49626-14.00262-13.7309-1.48968-8.26808 2.53234-15.7979 10.42747-19.1936-.00033.00015-.00033.00015.14858.00015z"/>
  </g>
</svg>
