<svg xmlns="http://www.w3.org/2000/svg" viewBox="0 0 348 361">
  <defs>
    <linearGradient id="a" x1="0%" y1="50.00189%" y2="50.00189%">
      <stop stop-color="#00AEFF" offset="3%"/>
      <stop stop-color="#0090FF" offset="100%"/>
    </linearGradient>
  </defs>
  <g fill="none" fill-rule="evenodd">
    <g fill-rule="nonzero">
      <path fill="url(#a)" d="M347.2533 173.6962c0 73.1581-45.34933 135.7409-109.43294 161.23758-19.7947 7.85182-41.37996 6.37417-63.9793 6.37417-20.36258 0-39.90232 2.2831-58.05133-4.1606C48.5712 313.27318.42882 249.10265.42882 173.6904.4288 77.91556 78.0778.27815 173.84107.27815c95.76325 0 173.41225 77.6432 173.41225 173.41804z" transform="translate(0 13.712)"/>
      <g fill="#008BEA" transform="translate(3.477 202.62)">
        <path d="M60.12003 2.31788C39.11103 2.29352 18.44636 7.6542.0985 17.88825 2.06403 28.06165 4.9401 38.0378 8.69206 47.6962c15.2539-10.06763 33.1339-15.42235 51.4106-15.39653 51.67136 0 93.7177 42.03477 93.7177 93.70613.0132 10.50224-1.75008 20.93106-5.21522 30.8452 7.21792.90132 14.48514 1.35032 21.7591 1.34436 3.10597 0 6.19455-.07533 9.27153-.24337 2.7817-10.4247 4.18822-21.16837 4.18378-31.9578-.0116-68.19205-55.50166-123.67632-123.6995-123.67632z"/>
        <circle cx="243.22682" cy="30.5207" r="30.39321"/>
        <g transform="translate(272.93 57.947)">
          <circle cx="24.89404" cy="6.14818" r="6.03808"/>
          <circle cx="43.52401" cy="6.14818" r="6.03808"/>
          <circle cx="6.26407" cy="6.14818" r="6.03808"/>
        </g>
      </g>
    </g>
    <path fill="#FEFEFE" fill-rule="nonzero" d="M292.98013 103.72682s10.53477 2.01076 25.18378 12.10513c0 0 5.34852 12.85845 3.81292 30.23676-1.0007 10.61133-4.41593 20.85304-9.98427 29.94123-16.1962 7.37087-25.9139 5.7947-25.9139 5.7947"/>
    <path fill="#E8E8E8" d="M288.49503 179.24338l.48676-.07533c4.28227-.67798 18.32863-3.89404 22.8485-6.54222 1.298-1.50662 8.5182-18.43295 8.69205-18.43295 3.01325 0-26.07616 3.80133-26.07616 3.80133l-5.95117 21.24918z"/>
    <path fill="#55566B" fill-rule="nonzero" d="M281.45447 184.2442h-.26076c-1.33773-.0112-2.4131-1.10473-2.4019-2.44246.0112-1.33774 1.10474-2.4131 2.44247-2.4019h.1275c10.10335-.30463 20.05307-2.55547 29.3038-6.62914 5.0334-8.15953 8.08015-17.38713 8.89486-26.93957 1.28063-14.48676-2.9495-25.4967-4.0563-28.05216-8.41356-5.65815-17.84634-9.62767-27.774-11.6879-1.29587-.23883-2.1631-1.46976-1.95185-2.7704.21126-1.30066 1.4235-2.19384 2.72834-2.01024.62004.0985 15.37914 2.57285 30.3063 12.86424l.5273.36507.27816.57947c.26076.53312 6.3278 13.32782 4.75165 31.14653-1.57616 17.8187-9.79884 29.35016-10.14652 29.83112l-.37665.51573-.57947.26656c-10.0063 4.55414-20.82327 7.0584-31.8129 7.36507z"/>
    <g>
      <path fill="#FEFEFE" fill-rule="nonzero" d="M62.84354 103.72682s-10.53476 2.01076-25.18377 12.10513c0 0-5.3485 12.85845-3.81292 30.23676 1.0007 10.61133 4.41594 20.85304 9.98428 29.94123 16.1962 7.37087 25.9139 5.7947 25.9139 5.7947"/>
      <path fill="#E8E8E8" d="M59.01325 158s-29.07202-3.80132-26.07616-3.80132c.16803 0 7.38244 16.92632 8.69204 18.43294 4.51987 2.64818 18.54305 5.87004 22.8485 6.54222l.48676.07533L59.01325 158z"/>
      <path fill="#55566B" fill-rule="nonzero" d="M71.9702 184.2442c-10.99394-.29706-21.81697-2.79347-31.8303-7.34188l-.57947-.26656-.37665-.51573c-.3477-.48096-8.57037-11.98923-10.14653-29.83112-1.57616-17.84188 4.4909-30.6134 4.75166-31.14652l.27815-.57947.52732-.36505c14.92715-10.2914 29.68626-12.74835 30.3063-12.86424 1.29928-.17115 2.49907.72213 2.70764 2.01594.2086 1.2938-.6497 2.51887-1.93694 2.7647-9.9273 2.06137-19.35988 6.0308-27.774 11.6879-7.0947 18.06868-5.2945 38.42003 4.86175 54.96276 9.27296 4.0989 19.2561 6.35062 29.39073 6.62914h.04057c1.33773-.0112 2.43126 1.06417 2.44246 2.4019.0112 1.33774-1.06416 2.43127-2.4019 2.44247l-.26076.0058z"/>
    </g>
    <g>
      <path fill="#FEFEFE" fill-rule="nonzero" d="M231.3303 240.4586l41.7914 56.7881s12.8874 15.37913-5.97435 23.75827c-13.1134 5.83526-23.82202-1.25745-36.2053-30.92633 3.22765 24.41888 3.96937 44.24255 3.00745 59.99835l-1.0894.39982c-3.78587 1.3714-7.63162 2.60955-11.53725 3.7144-32.95716 9.32452-67.93068 8.73602-100.55547-1.69205l-.92135-.30132-.2144-.06954c-1.15895-16.0803-.51574-36.56456 2.86257-62.05545-12.38327 29.66887-23.0745 36.7616-36.1879 30.92632-18.86176-8.40232-5.98014-23.75828-5.98014-23.75828l41.7914-56.7881C79.98688 219.66188 53.313 176.75545 53.31125 129.774c0-68.16307 55.25248-123.42715 123.42715-123.42715 0 0 43.88908-1.4081 77.42302 16.66557 27.93047 15.06622 44.5149 9.77566 53.8328 5.87583-.00002 0 2.31787 22.4313-23.8626 39.98344 16.72532 29.5471 20.54508 64.67778 10.56084 97.12902-9.98424 32.45125-32.89127 59.35892-63.3332 74.39415l-.02896.06374z"/>
      <g fill="#FC0" fill-rule="nonzero">
        <path d="M233.9379 350.11755l-1.0894.39983c-36.12112 13.0045-75.52598 13.71544-112.0927 2.02236l-1.15895-.37087c-.72632-11.19183-.71083-22.41948.04636-33.60927l32.87915 4.09686 1.50083 7.8576c14.584 5.64205 30.74796 5.64205 45.33195 0l1.50083-7.8576 32.87914-4.09686c.71476 10.5052.7825 21.04443.2028 31.55795zM239.72103 16.5687l-14.3361 42.3419s-26.65563 7.02897-48.6755 7.02897c-22.01986 0-48.64652-7.02897-48.64652-7.02897L115.726 22.46192c18.5887-10.58864 39.61947-16.14146 61.0124-16.10927 0 0 32.51408-1.04884 62.98263 10.21606z"/>
      </g>
      <path fill="#444" d="M234.0654 350.0712l-.1275.04635-1.0894.39983c-3.78586 1.37142-7.6316 2.60955-11.53724 3.7144 2.9495-12.94536 4.83278-27.9942 4.17218-34.62334 2.76408-.4288 5.6788-.5331 8.44288-1.03145 0 .18542.02898.37085.04636.57946.9298 10.2826.9608 20.62673.09272 30.91473z" opacity=".1"/>
      <path fill="#E8E8E8" d="M306.00083 31.98262c-17.11176 15.48344-35.34768 16.46854-35.34768 16.46854l4.63576 8.23427 9.37583 11.3692s8.00828-7.13907 8.47186-7.78228c.46356-.6432 13.74502-19.63245 13.74502-19.63245s-.62003-8.70364-.8808-8.65728zM209.10182 247.31374c-6.58278 7.7707-18.62417 12.97434-32.39238 12.97434-13.76822 0-25.8096-5.21523-32.3924-12.97434 21.26355 5.33436 43.51545 5.33436 64.779 0h.00578z"/>
      <path fill="#55566B" fill-rule="nonzero" d="M302.55878 129.81457c-.00275-15.88757-3.00686-31.63162-8.8543-46.40397-.01093-.05906-.02643-.1172-.04637-.17385-.23178-.57947-.48674-1.15894-.73012-1.7384-.24338-.57948-.5331-1.28643-.80546-1.92385-.27235-.6374-.61424-1.37914-.92136-2.0745-.30712-.69536-.71854-1.5472-1.0894-2.31788-.28395-.57947-.57948-1.15894-.83444-1.7384-.6432-1.27485-1.29222-2.5381-1.976-3.79554 20.1366-14.40563 22.90067-31.5058 23.13246-38.33775.1293-1.39914-.52732-2.75472-1.70534-3.52062-1.17802-.76588-2.68342-.81595-3.90973-.13003l-1.35016.67218c-7.0116 3.47682-13.64652 6.75083-44.76986-7.5331-41.31623-18.9313-79.5323-17.04223-82.053-16.88577-69.35098.04056-125.74502 56.46937-125.74502 125.83775-.09985 46.8864 25.96416 89.9121 67.56623 111.53642L77.82284 295.6937c-.18543.26077-4.63576 6.3452-3.19288 13.9073.9909 5.21522 4.4851 9.76407 10.4015 13.4553 3.2682 2.04552 6.47846 3.0654 9.59022 3.0654 1.41824-.00117 2.82838-.21406 4.18376-.63163 7.24918-2.24835 13.32782-10.03643 20.19454-23.3063-3.35513 18.7169-4.1664 34.95944-3.19868 48.64073 1.6457.57947 3.2972 1.15894 4.97186 1.68047-1.55878-16.9727-.3303-40.07037 7.59685-70.50414v-.04057c1.33278-5.1341 2.851-10.46523 4.5894-16.01076.40005-1.28013-.3134-2.64217-1.59354-3.0422-1.28014-.40006-2.64218.3134-3.04222 1.59353-1.73842 5.50496-3.23924 10.84768-4.5894 16.05132-8.57037 19.5919-17.03064 37.4106-26.38908 40.31374-3.02484.93294-6.2235.3129-9.78725-1.91805-4.68792-2.92633-7.452-6.37417-8.18792-10.1871-1.04884-5.43542 2.28312-10.10595 2.31788-10.13492l41.31624-55.32202c.681-.91676.91884-2.08898.649-3.19867-.26185-1.1181-1.00114-2.065-2.02235-2.59023-40.51106-20.6093-65.9905-62.24836-65.90315-107.70033 0-66.7202 54.27318-121.00497 120.99338-121.00497h.15645c.37666-.02897 39.11424-2.1904 79.80464 16.45116 30.77566 14.1043 39.3692 12.16888 48.80298 7.5331-.57947 6.82038-4.00993 20.62336-20.61176 32.68793-3.56028-5.97105-7.60712-11.63817-12.09933-16.94372-.86568-1.0209-2.39507-1.14673-3.41597-.28104-1.0209.86568-1.14673 2.39507-.28104 3.41597 5.0813 5.9967 9.56813 12.47275 13.39734 19.33693.30132.57947.57947 1.101.89238 1.6515.41722.7707.81706 1.54718 1.2169 2.31787.28393.57947.57946 1.12997.8576 1.70365.39984.80546.7707 1.6225 1.15895 2.43377.5273 1.15894 1.03145 2.2831 1.5182 3.43626.25497.57947.51574 1.15894.7591 1.79056 23.5131 58.1471-1.25866 124.62504-57.0894 153.20613-1.0169.52552-1.75305 1.46954-2.0149 2.58385-.26187 1.1143-.02324 2.2874.65315 3.21085l41.30464 55.29305c.02897.04636 3.36672 4.63576 2.31788 10.09437-.73013 3.85347-3.47682 7.29552-8.1995 10.24502-3.55795 2.21937-6.76242 2.8394-9.78725 1.90646-9.35846-2.89735-17.81872-20.72186-26.3891-40.31374-1.35015-5.21523-2.89734-10.54636-4.5894-16.05133-.25877-.8281-.93968-1.45522-1.78623-1.64516-.84654-.18994-1.7301.08617-2.31788.72434-.58777.63816-.79043 1.5414-.53165 2.3695 1.7384 5.54554 3.25662 10.87666 4.601 16.01077-.00372.01327-.00372.0273 0 .04056 7.61423 29.24008 9.04552 51.71193 7.7649 68.4818 1.6534-.59492 3.29718-1.2169 4.93128-1.8659.74752-13.2119-.14486-28.71854-3.32616-46.43294 6.84934 13.26987 12.94537 21.05795 20.19454 23.3063 1.35542.41748 2.76554.63037 4.1838.6316 3.11174 0 6.322-1.01985 9.59022-3.06538 5.9164-3.68543 9.4048-8.2227 10.4015-13.4553 1.43128-7.5331-3.00746-13.61755-3.1987-13.9073l-40.63244-54.40644c41.60073-21.60717 67.67677-64.61274 67.601-111.49007z"/>
      <g fill-rule="nonzero">
        <path fill="#484F5F" d="M176.7384 179.71854c5.19986-.00614 10.33948 1.11272 15.06624 3.2798 4.73413 2.1764 8.9498 5.33717 12.3659 9.27153 1.3419 1.62188 1.1443 4.01827-.44516 5.39843-1.58947 1.38016-3.98988 1.23968-5.4075-.31648-2.6897-3.08917-6.00634-5.57022-9.7293-7.27814-7.51774-3.43913-16.15942-3.43913-23.67716 0-3.72296 1.70792-7.0396 4.18897-9.7293 7.27814-.89694 1.08406-2.31083 1.59703-3.6942 1.3403-1.3834-.25674-2.51908-1.24287-2.96732-2.57657-.44824-1.3337-.13866-2.80556.80887-3.84568 3.41596-3.9345 7.63167-7.09528 12.3659-9.27153 4.71958-2.164 9.851-3.28278 15.04304-3.2798z"/>
        <g transform="translate(221.358 128.447)">
          <path fill="#FEA393" d="M32.13742 46.86755c-.00637 2.4744-2.0107 4.47873-4.4851 4.4851H7.53312c-2.48026 0-4.4909-2.01064-4.4909-4.4909 0-2.48025 2.01064-4.4909 4.4909-4.4909h20.1192c2.47892.0064 4.4851 2.01777 4.4851 4.4967z"/>
          <circle cx="17.59272" cy="18.64735" r="17.04222" fill="#484F5F"/>
          <circle cx="26.06457" cy="7.22599" r="6.86093" fill="#FFF"/>
        </g>
        <g transform="translate(97.35 128.447)">
          <path fill="#FEA393" d="M31.66805 46.86755c-.00637 2.4744-2.0107 4.47873-4.4851 4.4851H7.06375c-2.48026 0-4.4909-2.01064-4.4909-4.4909 0-2.48025 2.01064-4.4909 4.4909-4.4909h20.1192c2.4776.00958 4.48193 2.01908 4.4851 4.4967z"/>
          <circle cx="17.12334" cy="18.64735" r="17.04222" fill="#484F5F"/>
          <circle cx="25.60099" cy="7.22599" r="6.86093" fill="#FFF"/>
        </g>
      </g>
    </g>
  </g>
</svg>
