<svg xmlns="http://www.w3.org/2000/svg" viewBox="0 0 45 45">
  <g fill="none" fill-rule="evenodd" transform="translate(-5 -5)">
    <circle cx="28" cy="28" r="28"/>
    <g fill="#FFF" fill-rule="nonzero">
      <path d="M27.94852 5.89474c-12.12958 0-22.05378 9.9242-22.05378 22.05378 0 12.12958 9.9242 22.0538 22.05378 22.0538 12.12958 0 22.0538-9.92422 22.0538-22.0538 0-12.12958-9.92437-22.05378-22.0538-22.05378zm0 39.97237c-9.9242 0-17.91858-7.99453-17.91858-17.91858 0-9.92405 7.99438-17.91874 17.91858-17.91874 9.9242 0 17.9186 7.99454 17.9186 17.91874 0 9.9242-7.99455 17.9186-17.9186 17.9186z"/>
      <path d="M39.38875 16.50814l-8.5458 14.33496-5.78916-5.78916c.00014 0 14.33495-8.5458 14.33495-8.5458z"/>
      <path d="M16.50814 39.38875l14.33496-8.5458-5.78916-5.78916c0 .00014-8.5458 14.33495-8.5458 14.33495z"/>
    </g>
  </g>
</svg>
