<svg xmlns="http://www.w3.org/2000/svg" id="artwork" viewBox="0 0 197 59">
  <style>
    .st0{fill:none;} .st1{fill:#FFFFFF;stroke:#FFFFFF;stroke-width:0.2;stroke-miterlimit:10;} .st2{fill:#FFFFFF;} .st3{fill:url(#SVGID_1_);} .st4{fill:url(#SVGID_2_);} .st5{fill:url(#SVGID_3_);} .st6{fill:url(#SVGID_4_);} .st7{opacity:0.2;enable-background:new ;} .st8{opacity:0.12;enable-background:new ;} .st9{opacity:0.25;fill:#FFFFFF;enable-background:new ;}
  </style>
  <path d="M188.8 58.4H8.2c-4 0-7.2-3.2-7.2-7.2V7.8C1 3.8 4.2.6 8.2.6h180.6c4 0 7.2 3.2 7.2 7.2v43.3c0 4-3.2 7.3-7.2 7.3z"/>
  <path d="M188.8 1.8c3.3 0 6.1 2.7 6.1 6.1v43.3c0 3.3-2.7 6.1-6.1 6.1H8.2c-3.3 0-6.1-2.7-6.1-6.1V7.8c0-3.3 2.7-6.1 6.1-6.1h180.6" class="st0"/>
  <path d="M69.5 15.4c0 1.2-.4 2.2-1.1 2.9-.8.9-1.9 1.3-3.2 1.3-1.3 0-2.3-.4-3.2-1.3-.9-.9-1.3-1.9-1.3-3.2 0-1.3.4-2.4 1.3-3.2.9-.9 1.9-1.3 3.2-1.3.6 0 1.2.1 1.8.4.6.2 1 .6 1.4 1l-.8.8c-.6-.7-1.4-1-2.4-1-.9 0-1.7.3-2.4 1-.7.6-1 1.5-1 2.5s.3 1.9 1 2.5c.7.6 1.5 1 2.4 1 1 0 1.8-.3 2.4-1 .4-.4.7-1 .7-1.8h-3.1v-1h4.2c.1 0 .1.2.1.4zM76.2 11.8h-3.9v2.7h3.6v1h-3.6v2.7h3.9v1.1h-5.1v-8.7h5.1v1.2zM80.8 19.4h-1.1v-7.6h-2.4v-1.1h6v1.1h-2.4v7.6zM87.6 19.4v-8.7h1.1v8.7h-1.1zM93.6 19.4h-1.1v-7.6h-2.4v-1.1h6v1.1h-2.4v7.6zM107.3 18.3c-.9.9-1.9 1.3-3.2 1.3-1.3 0-2.3-.4-3.2-1.3-.9-.9-1.3-1.9-1.3-3.2s.4-2.3 1.3-3.2c.9-.9 1.9-1.3 3.2-1.3 1.3 0 2.3.4 3.2 1.3.9.9 1.3 1.9 1.3 3.2 0 1.2-.4 2.3-1.3 3.2zm-5.5-.8c.6.6 1.4 1 2.4 1 .9 0 1.7-.3 2.4-1 .6-.6 1-1.5 1-2.5s-.3-1.8-1-2.5c-.6-.6-1.4-1-2.4-1-.9 0-1.7.3-2.4 1-.6.6-1 1.5-1 2.5s.4 1.9 1 2.5zM110.2 19.4v-8.7h1.4l4.2 6.7v-6.8h1.1v8.7h-1.2l-4.4-7.1V19.3h-1.1z" class="st1"/>
  <path d="M99.4 32c-3.4 0-6.2 2.6-6.2 6.1 0 3.5 2.8 6.1 6.2 6.1 3.4 0 6.2-2.6 6.2-6.1 0-3.5-2.8-6.1-6.2-6.1zm0 9.9c-1.9 0-3.5-1.5-3.5-3.7s1.6-3.7 3.5-3.7 3.5 1.5 3.5 3.7-1.6 3.7-3.5 3.7zM86 32c-3.4 0-6.2 2.6-6.2 6.1 0 3.5 2.8 6.1 6.2 6.1 3.4 0 6.2-2.6 6.2-6.1-.1-3.5-2.8-6.1-6.2-6.1zm0 9.9c-1.9 0-3.5-1.5-3.5-3.7s1.6-3.7 3.5-3.7 3.5 1.5 3.5 3.7c-.1 2.2-1.7 3.7-3.5 3.7zm-16-8v2.6h6.2c-.2 1.5-.7 2.5-1.4 3.3-.9.9-2.3 1.9-4.8 1.9-3.8 0-6.8-3.1-6.8-6.9s3-6.9 6.8-6.9c2.1 0 3.6.8 4.7 1.9l1.8-1.8c-1.6-1.5-3.6-2.6-6.5-2.6-5.3 0-9.7 4.3-9.7 9.5 0 5.3 4.4 9.5 9.7 9.5 2.8 0 5-.9 6.7-2.7 1.7-1.7 2.3-4.1 2.3-6.1 0-.6 0-1.2-.1-1.6H70zm65.4 2c-.5-1.4-2.1-3.9-5.3-3.9-3.2 0-5.8 2.5-5.8 6.1 0 3.4 2.6 6.1 6.1 6.1 2.8 0 4.4-1.7 5.1-2.7l-2.1-1.4c-.7 1-1.7 1.7-3 1.7-1.4 0-2.4-.6-3-1.9l8.2-3.4-.2-.6zM127 38c-.1-2.4 1.8-3.6 3.2-3.6 1.1 0 2 .5 2.3 1.3L127 38zm-6.6 5.9h2.7v-18h-2.7v18zm-4.5-10.5c-.7-.7-1.9-1.4-3.3-1.4-3.1 0-5.9 2.7-5.9 6.2 0 3.4 2.8 6.1 5.9 6.1 1.5 0 2.6-.7 3.2-1.4h.1v.9c0 2.4-1.3 3.6-3.3 3.6-1.7 0-2.7-1.2-3.1-2.2l-2.4 1c.7 1.6 2.5 3.6 5.4 3.6 3.2 0 5.8-1.9 5.8-6.4v-11h-2.6v1zm-3.1 8.5c-1.9 0-3.4-1.6-3.4-3.7 0-2.2 1.6-3.7 3.4-3.7 1.8 0 3.3 1.6 3.3 3.7s-1.4 3.7-3.3 3.7zm35.3-16h-6.5V44h2.7v-6.8h3.8c3 0 5.9-2.2 5.9-5.6s-3-5.7-5.9-5.7zm0 8.7h-3.8v-6.2h3.8c2 0 3.2 1.7 3.2 3.1 0 1.4-1.2 3.1-3.2 3.1zm16.7-2.6c-2 0-4 .9-4.8 2.8l2.4 1c.5-1 1.5-1.3 2.5-1.3 1.4 0 2.8.8 2.8 2.3v.2c-.5-.3-1.5-.7-2.8-.7-2.6 0-5.2 1.4-5.2 4.1 0 2.4 2.1 4 4.5 4 1.8 0 2.8-.8 3.4-1.8h.1V44h2.6v-7c0-3.2-2.4-5-5.5-5zm-.3 9.9c-.9 0-2.1-.4-2.1-1.5 0-1.4 1.5-1.9 2.9-1.9 1.2 0 1.7.3 2.5.6-.3 1.6-1.8 2.8-3.3 2.8zm15.2-9.5l-3.1 7.8h-.1l-3.2-7.8h-2.9l4.8 10.9-2.7 6.1h2.8l7.4-17h-3zm-24.2 11.5h2.7v-18h-2.7v18z" class="st2"/>
  <linearGradient id="SVGID_1_" x1="32.4884" x2="8.2471" y1="187.808" y2="163.5668" gradientUnits="userSpaceOnUse" gradientTransform="matrix(1 0 0 -1 0 201)">
    <stop offset="0" stop-color="#00A0FF"/>
    <stop offset=".00657" stop-color="#00A1FF"/>
    <stop offset=".2601" stop-color="#00BEFF"/>
    <stop offset=".5122" stop-color="#00D2FF"/>
    <stop offset=".7604" stop-color="#00DFFF"/>
    <stop offset="1" stop-color="#00E3FF"/>
  </linearGradient>
  <path d="M16.1 11.5c-.4.4-.7 1.1-.7 2v31.9c0 .9.2 1.6.7 2l.1.1 17.9-17.9v-.4L16.2 11.4l-.1.1z" class="st3"/>
  <linearGradient id="SVGID_2_" x1="49.8717" x2="14.9207" y1="171.4978" y2="171.4978" gradientUnits="userSpaceOnUse" gradientTransform="matrix(1 0 0 -1 0 201)">
    <stop offset="0" stop-color="#FFE000"/>
    <stop offset=".4087" stop-color="#FFBD00"/>
    <stop offset=".7754" stop-color="#FFA500"/>
    <stop offset="1" stop-color="#FF9C00"/>
  </linearGradient>
  <path d="M40 35.7l-6-6v-.4l6-6 .1.1 7.1 4c2 1.1 2 3 0 4.2l-7.1 4-.1.1z" class="st4"/>
  <linearGradient id="SVGID_3_" x1="36.861" x2="3.9879" y1="168.1833" y2="135.3102" gradientUnits="userSpaceOnUse" gradientTransform="matrix(1 0 0 -1 0 201)">
    <stop offset="0" stop-color="#FF3A44"/>
    <stop offset="1" stop-color="#C31162"/>
  </linearGradient>
  <path d="M40.2 35.6l-6.1-6.1-18 18c.7.7 1.8.8 3 .1l21.1-12" class="st5"/>
  <linearGradient id="SVGID_4_" x1="11.5404" x2="26.2196" y1="200.1343" y2="185.4551" gradientUnits="userSpaceOnUse" gradientTransform="matrix(1 0 0 -1 0 201)">
    <stop offset="0" stop-color="#32A071"/>
    <stop offset=".0685" stop-color="#2DA771"/>
    <stop offset=".4762" stop-color="#15CF74"/>
    <stop offset=".8009" stop-color="#06E775"/>
    <stop offset="1" stop-color="#00F076"/>
  </linearGradient>
  <path d="M40.2 23.4l-21.1-12c-1.2-.7-2.3-.6-3 .1l18 18 6.1-6.1z" class="st6"/>
  <path d="M40 35.5L19 47.4c-1.2.7-2.2.6-2.9 0l-.1.1.1.1c.7.6 1.7.7 2.9 0l21.1-12-.1-.1z" class="st7"/>
  <path d="M16.1 47.3c-.4-.4-.7-1.1-.7-2v.2c0 .9.2 1.6.7 2l.1-.1-.1-.1zM47.2 31.4L40 35.5l.1.1 7.1-4c1-.6 1.5-1.3 1.5-2.1 0 .7-.5 1.4-1.5 1.9z" class="st8"/>
  <path d="M19.1 11.6l28.2 16c.9.5 1.4 1.2 1.5 1.9 0-.8-.5-1.5-1.5-2.1l-28.2-16c-2-1.1-3.7-.2-3.7 2.1v.2c0-2.3 1.7-3.2 3.7-2.1z" class="st9"/>
</svg>
