<svg xmlns="http://www.w3.org/2000/svg" viewBox="0 0 196 57">
  <g fill="none" fill-rule="evenodd">
    <rect width="196" height="57" fill="#000" rx="5.28"/>
    <path fill="#FFF" d="M75.23202 43.77494h3.29424l-7.21135-19.5683h-3.33576l-7.21135 19.5683h3.1835l1.8409-5.1938h7.61276l1.82706 5.1938zm-5.74417-16.01536h.2353L72.616 36.0317h-6.03484l2.9067-8.27212zm17.77315 1.0035c-2.04852 0-3.8202 1.0035-4.73374 2.68505h-.22147v-2.44095h-2.86517v19.55474h2.9759V41.5374h.2353c.78896 1.5595 2.49144 2.48164 4.63685 2.48164 3.80638 0 6.22862-2.9427 6.22862-7.63476s-2.42224-7.6212-6.2563-7.6212zm-.84432 12.6387c-2.49145 0-4.05552-1.92563-4.05552-5.00394 0-3.09187 1.56407-5.01752 4.06936-5.01752 2.51913 0 4.02784 1.88496 4.02784 5.00396 0 3.13255-1.5087 5.0175-4.04168 5.0175zm16.27828-12.6387c-2.04852 0-3.8202 1.0035-4.73374 2.68505h-.22146v-2.44095H94.8746v19.55474h2.9759V41.5374h.2353c.78895 1.5595 2.49143 2.48164 4.63685 2.48164 3.80637 0 6.2286-2.9427 6.2286-7.63476s-2.42223-7.6212-6.2563-7.6212zm-.84432 12.6387c-2.49144 0-4.05552-1.92563-4.05552-5.00394 0-3.09187 1.56408-5.01752 4.06936-5.01752 2.51913 0 4.02784 1.88496 4.02784 5.00396 0 3.13255-1.5087 5.0175-4.04168 5.0175zm13.40013-2.88845c.22146 3.4987 3.19735 5.73624 7.62658 5.73624 4.73375 0 7.6958-2.34603 7.6958-6.08882 0-2.9427-1.68864-4.57-5.7857-5.5057l-2.20076-.52888c-2.6022-.59668-3.65413-1.39677-3.65413-2.79353 0-1.7629 1.63328-2.9156 4.0832-2.9156 2.32535 0 3.93094 1.12556 4.2216 2.92916h3.01743c-.17994-3.2953-3.142-5.6142-7.1975-5.6142-4.36004 0-7.26672 2.3189-7.26672 5.80405 0 2.8749 1.64712 4.58357 5.25972 5.41078l2.5745.61024c2.6437.61023 3.80636 1.50525 3.80636 2.99694 0 1.7358-1.82706 2.99696-4.3185 2.99696-2.67138 0-4.52613-1.1798-4.7891-3.03763h-3.0728zm17.88388-13.08622V29.075h-2.4776v2.4545h2.4776v8.33994c0 2.84778 1.31493 3.9869 4.623 3.9869.58135 0 1.12116-.06782 1.59177-.14918v-2.4274c-.41524.0407-.65055.0678-1.1073.0678-1.48104 0-2.13158-.67803-2.13158-2.22397V31.5295h3.3773v-2.45452h-3.3773V25.4271h-2.9759zm13.73147 16.0425c-2.58833 0-4.04168-1.85784-4.04168-5.08532 0-3.20036 1.45335-5.07176 4.04168-5.07176 2.5745 0 4.04168 1.8714 4.04168 5.07176 0 3.21392-1.4672 5.08532-4.04168 5.08532zm0 2.59012c4.40155 0 7.10062-2.88846 7.10062-7.67544 0-4.75986-2.7129-7.66188-7.10062-7.66188-4.40155 0-7.11446 2.90202-7.11446 7.66188 0 4.78698 2.69907 7.67544 7.11446 7.67544zm8.45792-.28478h2.9759v-8.71962c0-2.07482 1.59175-3.47158 3.83405-3.47158.49828 0 1.4118.09492 1.6471.1763v-2.8749c-.31834-.08138-.88584-.12206-1.31492-.12206-1.96547 0-3.62644 1.05775-4.05552 2.50876h-.22146v-2.26466h-2.86516v14.76776zm15.15713-12.5709c2.20078 0 3.64028 1.50525 3.7095 3.82415h-7.61276c.1661-2.30535 1.7025-3.82417 3.90327-3.82417zm3.69564 8.584c-.55364 1.15268-1.78552 1.79004-3.5849 1.79004-2.3807 0-3.9171-1.64086-4.014-4.23098v-.16273h10.644V36.1673c0-4.6378-2.53296-7.4449-6.7269-7.4449-4.2493 0-6.94835 2.99695-6.94835 7.71612 0 4.71918 2.6437 7.6212 6.9622 7.6212 3.4465 0 5.8549-1.6273 6.53313-4.27167h-2.86517zM63.55663 8.93234v9.31824h3.43398c2.8342 0 4.47538-1.71125 4.47538-4.68818 0-2.93173-1.65437-4.63006-4.47537-4.63006h-3.43397zm1.4764 1.31734h1.7928c1.97074 0 3.13737 1.22693 3.13737 3.3321 0 2.13744-1.14685 3.35146-3.13737 3.35146h-1.7928v-6.68356zM76.6611 17.1528c-1.23254 0-1.9246-.8847-1.9246-2.42158 0-1.52398.69206-2.41513 1.9246-2.41513 1.22595 0 1.9246.89114 1.9246 2.41512 0 1.53044-.69865 2.42158-1.9246 2.42158zm0 1.2334c2.09598 0 3.38125-1.37547 3.38125-3.65498 0-2.2666-1.29186-3.64852-3.38125-3.64852-2.09597 0-3.38783 1.38192-3.38783 3.64852 0 2.2795 1.28526 3.65497 3.38783 3.65497zm14.4886-7.1679h-1.41708l-1.27868 5.36623h-.11205l-1.47642-5.36622H85.5077l-1.4764 5.36623h-.10546l-1.28527-5.36622H81.2037l1.97734 7.03228h1.45664l1.4764-5.17895h.11206l1.483 5.17895h1.46983l1.97074-7.03227zm1.8007 7.03228h1.4171v-4.11346c0-1.09778.69866-1.78228 1.83892-1.78228 1.05458 0 1.5687.5618 1.5687 1.69188v4.20386h1.41708V13.698c0-1.6725-.90298-2.6153-2.50462-2.6153-1.08095 0-1.91802.4714-2.26735 1.25277h-.10546V11.2183H92.9504v7.03228zm8.6357 0h1.4171V8.47385h-1.4171v9.77673zm6.90882-1.09778c-1.23254 0-1.9246-.8847-1.9246-2.42158 0-1.52398.69206-2.41513 1.9246-2.41513 1.22595 0 1.9246.89114 1.9246 2.41512 0 1.53044-.69866 2.42158-1.9246 2.42158zm0 1.2334c2.09597 0 3.38124-1.37547 3.38124-3.65498 0-2.2666-1.29186-3.64852-3.38124-3.64852-2.09598 0-3.38784 1.38192-3.38784 3.64852 0 2.2795 1.28527 3.65497 3.38784 3.65497zm7.76566-1.1882c-.77116 0-1.3314-.36808-1.3314-1.00092 0-.61992.4482-.94926 1.43686-1.01384l1.75324-.10977v.58763c0 .87177-.79094 1.5369-1.8587 1.5369zm-.3625 1.16882c.94252 0 1.72686-.40037 2.15528-1.10424h.11205v.988h1.36438v-4.80442c0-1.48523-1.01504-2.36346-2.8144-2.36346-1.62802 0-2.78806.7749-2.93306 1.98247h1.37095c.1582-.49723.70525-.78136 1.49618-.78136.9689 0 1.46983.41975 1.46983 1.16236v.607l-1.9444.1098c-1.7071.1033-2.6694.83302-2.6694 2.0987 0 1.28505 1.00845 2.10516 2.3926 2.10516zm8.6093 0c.98868 0 1.82575-.4585 2.25418-1.22694h.11205v1.1107h1.35778V8.47385h-1.4171v3.86162h-.10545c-.38888-.7749-1.21936-1.2334-2.20144-1.2334-1.81257 0-2.9792 1.40775-2.9792 3.62915 0 2.22785 1.15345 3.6356 2.9792 3.6356zm.40207-6.01844c1.1864 0 1.9312.92343 1.9312 2.3893 0 1.4723-.7382 2.38283-1.9312 2.38283-1.19958 0-1.91802-.8976-1.91802-2.38928 0-1.47878.72503-2.38284 1.91802-2.38284zm12.84215 4.80442c-1.23254 0-1.9246-.8847-1.9246-2.42158 0-1.52398.69206-2.41513 1.9246-2.41513 1.22595 0 1.9246.89114 1.9246 2.41512 0 1.53044-.69865 2.42158-1.9246 2.42158zm0 1.2334c2.09598 0 3.38125-1.37547 3.38125-3.65498 0-2.2666-1.29187-3.64852-3.38125-3.64852-2.09598 0-3.38784 1.38192-3.38784 3.64852 0 2.2795 1.28527 3.65497 3.38784 3.65497zm5.41922-.13562h1.4171v-4.11346c0-1.09778.69865-1.78228 1.83892-1.78228 1.05458 0 1.56868.5618 1.56868 1.69188v4.20386h1.4171V13.698c0-1.6725-.903-2.6153-2.50463-2.6153-1.08096 0-1.91803.4714-2.26736 1.25277h-.10546V11.2183h-1.36436v7.03228zm13.0992-8.73706v1.73708h-1.1798v1.1688h1.1798v3.9714c0 1.3561.62616 1.89853 2.20144 1.89853.27682 0 .53388-.0323.75798-.07104v-1.1559c-.19774.01936-.3098.03228-.5273.03228-.70525 0-1.01503-.32288-1.01503-1.05904V12.4194h1.60825v-1.1688h-1.60824V9.51352h-1.41708zm5.04353 8.73706h1.4171v-4.107c0-1.0655.71842-1.78228 1.87846-1.78228 1.06777 0 1.60165.56826 1.60165 1.69187v4.1974h1.4171v-4.53965c0-1.6725-.92276-2.62176-2.5376-2.62176-1.08093 0-1.9114.4714-2.26074 1.25922h-.11204V8.47385h-1.4039v9.77673zm11.5951-5.98615c1.048 0 1.73347.7168 1.76643 1.82103h-3.62512c.0791-1.09778.8107-1.82103 1.8587-1.82103zm1.75984 4.08763c-.26366.5489-.85027.8524-1.70712.8524-1.13367 0-1.86528-.78137-1.91142-2.01476v-.0775h5.06857v-.4843c0-2.2085-1.20617-3.5452-3.20328-3.5452-2.02348 0-3.30875 1.42712-3.30875 3.67435 0 2.24722 1.2589 3.62914 3.31534 3.62914 1.6412 0 2.78804-.77492 3.111-2.03414h-1.36435z"/>
    <g fill="#FFF">
      <path d="M43.64655 28.77167c-.04344-4.73 3.95304-7.03114 4.1358-7.13828-2.2634-3.23307-5.77154-3.6748-7.00434-3.71003-2.94642-.3038-5.80447 1.72733-7.3054 1.72733-1.5309 0-3.8422-1.69798-6.33325-1.6481-3.20558.04844-6.20443 1.86677-7.84916 4.69038-3.39433 5.7573-.86282 14.21786 2.3892 18.87154 1.62674 2.2806 3.52762 4.8239 6.01568 4.7344 2.43414-.09687 3.34338-1.52042 6.28082-1.52042 2.9105 0 3.7643 1.5204 6.3018 1.4617 2.6124-.03815 4.25712-2.28794 5.82695-4.5891 1.8799-2.60934 2.63487-5.18494 2.66482-5.31702-.0599-.01908-5.072-1.89317-5.12292-7.5624M38.85317 14.862c1.3092-1.60405 2.20495-3.78633 1.9563-6.0009-1.8949.08218-4.2646 1.28412-5.62923 2.85296-1.20733 1.38245-2.28584 3.6484-2.00723 5.7793 2.12857.15557 4.31406-1.05224 5.68017-2.63135"/>
    </g>
  </g>
</svg>
