<?xml version="1.0" encoding="utf-8"?>
<!-- Generator: Adobe Illustrator 21.1.0, SVG Export Plug-In . SVG Version: 6.00 Build 0)  -->
<svg version="1.1" id="Layer_1" xmlns="http://www.w3.org/2000/svg" xmlns:xlink="http://www.w3.org/1999/xlink" x="0px" y="0px"
	 viewBox="0 0 1309.7 262" style="enable-background:new 0 0 1309.7 262;" xml:space="preserve">
<style type="text/css">
	.st0{fill:#FFFFFF;}
</style>
<title>Asset 1</title>
<g id="Layer_2">
	<g id="Layer_1-2">
		<path class="st0" d="M132.9,104.4c12.7,12.6,19.1,30.4,19.1,53.3v81.1c0,6.6-2.1,12-6.3,16.4c-4.1,4.3-9.9,6.6-15.8,6.5
			c-5.2,0.1-10.3-1.7-14.3-4.9c-4-3.2-6.8-7.7-7.8-12.8C95,256,78.5,262,58.3,262c-17.3,0-31.3-4.7-42.1-14
			C5.4,238.7,0,226.5,0,211.6c0-15.2,5.7-27.2,17-35.9s26.9-13.1,46.7-13.1H106V155c0-9.3-2.7-16.6-8.2-21.8
			c-5.5-5.2-13.3-7.8-23.5-7.8c-11.8,0-22.6,4.2-32.4,12.6c-4.8,3.6-9.3,5.4-13.6,5.4c-5.3,0.2-10.4-1.8-14.2-5.4
			c-3.7-3.4-5.7-8.3-5.6-13.3c0-6.4,3.2-12.5,9.5-18.4c7-6.6,15.9-11.7,26.6-15.3c11.1-3.7,22.7-5.6,34.4-5.5
			C102.2,85.5,120.2,91.8,132.9,104.4z M95.7,218.7c6.7-6.1,10.5-14.8,10.3-23.8v-2H69.8c-15.7,0-23.5,5.7-23.5,17
			c-0.2,5.3,2.2,10.3,6.5,13.5c4.3,3.3,10.2,4.9,17.7,4.9C80.5,228.3,88.9,225.1,95.7,218.7z"/>
		<path class="st0" d="M439,103.7c11.5,12.2,17.2,28.7,17.2,49.6v85.2c0,6.8-2.2,12.4-6.5,16.9c-4.3,4.4-10.2,6.8-16.3,6.6
			c-6.2,0.2-12.2-2.3-16.5-6.8c-4.4-4.4-6.8-10.5-6.6-16.7v-78.7c0-10-2.7-18-8-23.9c-5.3-5.9-12.7-8.9-22-8.9
			c-9.1,0-16.5,3-22.3,8.9c-5.8,5.9-8.7,13.5-8.7,22.8v79.7c0,6.8-2.2,12.4-6.5,16.9c-4.3,4.4-10.2,6.8-16.4,6.6
			c-6.2,0.2-12.2-2.3-16.5-6.8c-4.4-4.4-6.8-10.5-6.6-16.7v-78.7c0-10-2.7-18-8.2-23.9c-5.4-5.9-12.7-8.9-21.8-8.9
			c-9.3,0-16.8,3-22.5,8.9c-5.7,5.9-8.5,13.9-8.5,23.9v78.7c0,6.8-2.2,12.4-6.5,16.9c-4.3,4.4-10.2,6.8-16.3,6.6
			c-6.2,0.2-12.2-2.3-16.5-6.8c-4.4-4.4-6.8-10.5-6.6-16.7V108.7c-0.2-6.2,2.2-12.1,6.5-16.5c4.3-4.4,10.2-6.8,16.4-6.6
			c4.9-0.1,9.8,1.5,13.6,4.6c3.9,3.2,6.7,7.5,7.8,12.4c12-11.3,27.2-17,45.7-17c10.9,0,20.6,2,29.1,6.1c8.5,4,15.7,10.3,21,18.1
			c6.9-7.6,15.4-13.6,24.8-17.8c9.9-4.3,20.6-6.5,31.4-6.5C412,85.5,427.5,91.6,439,103.7z"/>
		<path class="st0" d="M543.4,8.2c5.5,5.1,8.6,12.3,8.5,19.8c0,7.4-3,14.5-8.5,19.4c-5.3,5.3-12.6,8.3-20.1,8.2
			c-7.6,0.1-15-2.7-20.4-8c-5.5-5-8.6-12.1-8.5-19.6c-0.1-7.5,3-14.7,8.5-19.8c5.4-5.4,12.8-8.3,20.4-8.2
			C530.9-0.1,538.1,2.9,543.4,8.2z M506.8,255.2c-4.4-4.4-6.8-10.5-6.6-16.7V108.7c-0.3-12.5,9.7-22.9,22.2-23.2c0.3,0,0.6,0,1,0
			c6.1-0.2,12.1,2.2,16.3,6.6c4.3,4.4,6.6,10.4,6.5,16.5v129.8c0.1,6.2-2.3,12.3-6.6,16.7c-4.3,4.5-10.3,7-16.5,6.8
			C516.9,262.1,511,259.6,506.8,255.2L506.8,255.2z"/>
		<path class="st0" d="M626.9,250.2c-27.7-15.6-44.8-45-44.6-76.8c-0.2-31.7,16.9-61,44.6-76.3c14-7.7,29.7-11.7,45.7-11.6
			c13.8-0.1,27.4,3.1,39.7,9.2c12.4,6.1,21.9,14.2,28.5,24.2c2.7,4.3,4.1,8.4,4.1,12.3c0,11.2-9,20.4-20.3,20.4c-0.1,0-0.1,0-0.2,0
			c-6.6,0-11.8-2.4-15.7-7.2c-9.5-11.3-21.3-17-35.4-17c-12.9,0-23.6,4.3-31.9,12.9s-12.4,19.6-12.4,33c0,13.6,4.1,24.8,12.4,33.4
			c8.3,8.6,18.9,12.9,31.9,12.9c13.4,0,25.2-5.7,35.4-17c7.3-8.6,20.2-9.7,28.9-2.4c4.6,3.9,7.3,9.6,7.3,15.7
			c-0.1,4.2-1.4,8.2-3.8,11.6c-7,10.9-16.8,19.7-28.4,25.4c-11.9,6-25.3,9-40,9C656.6,262.2,640.8,258.1,626.9,250.2z"/>
		<path class="st0" d="M902.9,97.3c13.6,7.6,24.9,18.5,32.9,31.8c16.1,27.4,16.1,61.4,0,88.8c-8,13.4-19.4,24.5-33,32
			c-14,7.8-29.8,11.9-45.8,11.8c-15.9,0.2-31.6-3.9-45.5-11.8c-13.5-7.6-24.7-18.6-32.5-32c-15.9-27.5-15.9-61.4,0-88.9
			c7.8-13.4,19.1-24.4,32.7-31.8c14-7.7,29.7-11.7,45.7-11.6C873.2,85.4,889,89.4,902.9,97.3z M825.9,140.5
			c-8.2,8.7-12.3,19.8-12.3,33.2c0,13.2,4.1,24.1,12.3,32.7c8.2,8.6,18.6,12.9,31.3,12.9c12.5,0,22.9-4.3,31.2-12.9
			c8.3-8.6,12.4-19.5,12.4-32.7c0-13.2-4.1-24.2-12.4-33.1c-8.3-8.9-18.7-13.3-31.2-13.3C844.5,127.4,834.1,131.8,825.9,140.5z"/>
		<path class="st0" d="M980.9,252.8c-12.3-12.5-12.3-32.5,0-45c6-6.1,14.3-9.4,22.8-9.2c8.4-0.2,16.5,3.1,22.3,9.2
			c12.1,12.6,12.1,32.4,0,45c-5.8,6.1-13.9,9.4-22.3,9.2C994.6,262,987,258.9,980.9,252.8z"/>
		<path class="st0" d="M1194.5,104.4c12.7,12.6,19.1,30.4,19.1,53.3v81.1c0,6.6-2.1,12-6.3,16.4c-4.1,4.3-9.9,6.6-15.8,6.5
			c-5.2,0.1-10.3-1.7-14.3-4.9c-4-3.2-6.8-7.7-7.8-12.8c-12.7,12-29.2,18.1-49.4,18.1c-17.3,0-31.3-4.7-42.1-14
			c-10.8-9.3-16.2-21.5-16.2-36.4c0-15.2,5.7-27.2,17-35.9c11.3-8.7,26.9-13.1,46.7-13.1h42.3V155c0-9.3-2.7-16.6-8.2-21.8
			s-13.3-7.8-23.5-7.8c-11.8,0-22.6,4.2-32.4,12.6c-4.8,3.6-9.3,5.4-13.6,5.4c-5.3,0.2-10.4-1.8-14.1-5.4c-3.7-3.4-5.7-8.3-5.6-13.3
			c0-6.4,3.2-12.5,9.5-18.4c7-6.6,15.9-11.7,26.6-15.3c11.1-3.7,22.7-5.5,34.4-5.4C1163.8,85.5,1181.8,91.8,1194.5,104.4z
			 M1157.4,218.7c6.7-6.1,10.4-14.8,10.2-23.9v-2h-36.1c-15.7,0-23.5,5.7-23.5,17c-0.2,5.3,2.2,10.3,6.5,13.5
			c4.3,3.3,10.2,4.9,17.7,4.9C1142.2,228.3,1150.6,225.1,1157.4,218.7z"/>
		<path class="st0" d="M1301.2,8.2c5.5,5.1,8.6,12.3,8.5,19.8c0,7.4-3,14.5-8.5,19.4c-5.3,5.3-12.6,8.3-20.1,8.2
			c-7.6,0.1-15-2.7-20.4-8c-5.5-5-8.6-12.1-8.5-19.6c-0.1-7.5,3-14.7,8.5-19.8c5.4-5.4,12.8-8.3,20.4-8.2
			C1288.6-0.1,1295.8,2.9,1301.2,8.2z M1264.5,255.2c-4.4-4.4-6.8-10.5-6.6-16.7V108.7c-0.3-12.5,9.7-22.9,22.2-23.2
			c0.3,0,0.6,0,0.9,0c6.1-0.2,12.1,2.2,16.3,6.6c4.3,4.4,6.6,10.4,6.5,16.5v129.8c0.1,6.2-2.3,12.3-6.7,16.7
			c-4.3,4.5-10.3,7-16.5,6.8C1274.6,262.1,1268.7,259.6,1264.5,255.2L1264.5,255.2z"/>
	</g>
</g>
</svg>
