<svg xmlns="http://www.w3.org/2000/svg" viewBox="0 0 1309.68 262"><defs><style>.cls-1{fill:#ffd400;}</style></defs><title>Asset 1</title><g id="Layer_2" data-name="Layer 2"><g id="Layer_1-2" data-name="Layer 1"><path class="cls-1" d="M132.88,104.42Q152,123.34,152,157.74v81.09q0,9.88-6.31,16.35a21.21,21.21,0,0,1-15.84,6.47,22.15,22.15,0,0,1-14.31-4.94,21.86,21.86,0,0,1-7.84-12.78Q88.58,262,58.27,262q-25.89,0-42.08-14T0,211.58q0-22.83,17-35.95t46.68-13.12H106V155q0-14-8.18-21.81t-23.51-7.84q-17.72,0-32.37,12.61-7.15,5.45-13.63,5.45A19.46,19.46,0,0,1,14.15,138,17.8,17.8,0,0,1,8.52,124.7q0-9.53,9.54-18.4Q28.62,96.42,44.64,91A106.1,106.1,0,0,1,79,85.52Q113.79,85.52,132.88,104.42ZM95.74,218.73A31.26,31.26,0,0,0,106,194.88v-2H69.85q-23.5,0-23.5,17a16,16,0,0,0,6.47,13.46q6.47,4.94,17.72,4.94Q85.51,228.28,95.74,218.73Z"/><path class="cls-1" d="M439,103.74q17.2,18.23,17.21,49.58V238.5q0,10.22-6.48,16.86A21.85,21.85,0,0,1,433.39,262a22.13,22.13,0,0,1-16.52-6.81,23,23,0,0,1-6.64-16.69V159.79q0-15-8-23.85t-22-8.86q-13.64,0-22.32,8.86t-8.69,22.83V238.5q0,10.22-6.47,16.86A21.87,21.87,0,0,1,326.4,262a22.13,22.13,0,0,1-16.52-6.81,23,23,0,0,1-6.65-16.69V159.79q0-15-8.17-23.85t-21.81-8.86q-14,0-22.49,8.86t-8.52,23.85V238.5q0,10.22-6.47,16.86A21.86,21.86,0,0,1,219.42,262a22.14,22.14,0,0,1-16.53-6.81,23,23,0,0,1-6.64-16.69V108.68a22.76,22.76,0,0,1,6.47-16.52,21.88,21.88,0,0,1,16.36-6.64,21.25,21.25,0,0,1,13.63,4.6,22.69,22.69,0,0,1,7.84,12.44q18-17,45.65-17,16.36,0,29.13,6.13a52.76,52.76,0,0,1,21,18.06A73,73,0,0,1,361.15,92a76.76,76.76,0,0,1,31.35-6.47Q421.8,85.52,439,103.74Z"/><path class="cls-1" d="M543.43,8.17a26.42,26.42,0,0,1,8.52,19.76,26,26,0,0,1-8.52,19.42,28,28,0,0,1-20.1,8.18,28.77,28.77,0,0,1-20.44-8,25.83,25.83,0,0,1-8.52-19.59,26.4,26.4,0,0,1,8.52-19.76A28.44,28.44,0,0,1,523.33,0,28.07,28.07,0,0,1,543.43,8.17Zm-36.63,247a23,23,0,0,1-6.64-16.69V108.68a22.69,22.69,0,0,1,23.17-23.16,21.89,21.89,0,0,1,16.35,6.64,22.77,22.77,0,0,1,6.47,16.52V238.5a23,23,0,0,1-6.64,16.69A22.15,22.15,0,0,1,523,262,21.74,21.74,0,0,1,506.8,255.19Z"/><path class="cls-1" d="M626.9,250.25a87.56,87.56,0,0,1-44.62-76.83A86.49,86.49,0,0,1,626.9,97.1a92.25,92.25,0,0,1,45.66-11.59,88.24,88.24,0,0,1,39.69,9.2q18.57,9.2,28.45,24.19,4.08,6.48,4.09,12.27a20.36,20.36,0,0,1-20.44,20.44q-9.88,0-15.68-7.16-14.3-17-35.43-17-19.42,0-31.86,12.95t-12.43,33q0,20.44,12.43,33.39t31.86,12.95q20.1,0,35.43-17A20.49,20.49,0,0,1,744.8,216,21.15,21.15,0,0,1,741,227.59,71.49,71.49,0,0,1,712.6,253q-17.89,9-40,9A91.13,91.13,0,0,1,626.9,250.25Z"/><path class="cls-1" d="M902.88,97.27a88.62,88.62,0,0,1,32.88,31.85,87.49,87.49,0,0,1,0,88.76,87.76,87.76,0,0,1-33.05,32,92.08,92.08,0,0,1-45.82,11.75,90.23,90.23,0,0,1-45.48-11.75,87.17,87.17,0,0,1-32.53-32,88.85,88.85,0,0,1,0-88.92,85.5,85.5,0,0,1,32.7-31.85,92.25,92.25,0,0,1,45.66-11.59A91.19,91.19,0,0,1,902.88,97.27Zm-77,43.27q-12.27,13.12-12.26,33.22,0,19.76,12.26,32.71t31.35,12.94q18.73,0,31.17-12.94t12.44-32.71q0-19.76-12.44-33.05t-31.17-13.29Q838.14,127.42,825.88,140.54Z"/><path class="cls-1" d="M980.9,252.8a32.09,32.09,0,0,1,0-45,31,31,0,0,1,22.82-9.2,30,30,0,0,1,22.32,9.2,32.51,32.51,0,0,1,0,45,30,30,0,0,1-22.32,9.2Q990.1,262,980.9,252.8Z"/><path class="cls-1" d="M1194.52,104.42q19.09,18.92,19.09,53.32v81.09q0,9.88-6.31,16.35a21.22,21.22,0,0,1-15.84,6.47,22.18,22.18,0,0,1-14.31-4.94,21.85,21.85,0,0,1-7.83-12.78Q1150.23,262,1119.91,262q-25.9,0-42.08-14t-16.18-36.45q0-22.83,17-35.95t46.67-13.12h42.26V155q0-14-8.19-21.81t-23.5-7.84q-17.73,0-32.37,12.61-7.16,5.45-13.63,5.45a19.49,19.49,0,0,1-14.14-5.45,17.82,17.82,0,0,1-5.62-13.29q0-9.53,9.54-18.4,10.56-9.88,26.58-15.33a106.09,106.09,0,0,1,34.4-5.45Q1175.44,85.52,1194.52,104.42Zm-37.13,114.31a31.26,31.26,0,0,0,10.22-23.85v-2h-36.12q-23.51,0-23.5,17a16,16,0,0,0,6.47,13.46q6.47,4.94,17.71,4.94Q1147.16,228.28,1157.39,218.73Z"/><path class="cls-1" d="M1301.16,8.17a26.44,26.44,0,0,1,8.52,19.76,26,26,0,0,1-8.52,19.42,28.06,28.06,0,0,1-20.1,8.18,28.79,28.79,0,0,1-20.44-8,25.86,25.86,0,0,1-8.52-19.59,26.42,26.42,0,0,1,8.52-19.76A28.46,28.46,0,0,1,1281.06,0,28.08,28.08,0,0,1,1301.16,8.17Zm-36.63,247a23,23,0,0,1-6.64-16.69V108.68a22.69,22.69,0,0,1,23.16-23.16,21.88,21.88,0,0,1,16.35,6.64,22.77,22.77,0,0,1,6.48,16.52V238.5a23,23,0,0,1-6.65,16.69,22.13,22.13,0,0,1-16.52,6.81A21.74,21.74,0,0,1,1264.54,255.19Z"/></g></g></svg>